<svg id="Calque_1" data-name="Calque 1" xmlns="http://www.w3.org/2000/svg" viewBox="0 0 312.09 101.78"><defs><style>.cls-1{fill:#3c3c3b;}.cls-2{fill:#373cf5;}.cls-3{fill:#d2d5d7;opacity:0.5;}.cls-4{fill:#9d9d9c;}.cls-5{fill:#fff;}</style></defs><path class="cls-1" d="M17.87,28.41c0,5.74-4.18,8.1-9.7,8.1H5V45.7H1.56v-25H8.13C14.17,20.67,17.87,23.14,17.87,28.41Zm-3.67,0c0-3.74-2.4-5.08-6.1-5.08H5V33.78H8C11.73,33.78,14.2,32.69,14.2,28.44Z" transform="translate(-1.56 -1.2)"/><path class="cls-1" d="M31.86,26.33l-.62,3.27a6.21,6.21,0,0,0-1.67-.21c-2.4,0-3.78,1.71-4.58,5.37V45.7H21.65V26.55h2.87l.33,3.89c1-2.87,2.79-4.32,5.12-4.32A8.42,8.42,0,0,1,31.86,26.33Z" transform="translate(-1.56 -1.2)"/><path class="cls-1" d="M49.34,37.27H37.13c.32,4.43,2.4,6.14,5.16,6.14a8.1,8.1,0,0,0,5-1.67l1.45,2A10.44,10.44,0,0,1,42,46.14c-5.34,0-8.46-3.74-8.46-9.81s3-10.21,8-10.21c5.16,0,7.89,3.59,7.89,9.44C49.41,36.22,49.37,36.84,49.34,37.27ZM46.1,34.58c0-3.74-1.49-5.81-4.5-5.81-2.55,0-4.22,1.78-4.47,6h9Z" transform="translate(-1.56 -1.2)"/><path class="cls-1" d="M66.41,28.3,65,30.4a8.78,8.78,0,0,0-5-1.63c-2.18,0-3.53,1-3.53,2.51s1,2.29,4.11,3.09c4,1,6.36,2.61,6.36,6,0,4-3.67,5.82-7.56,5.82a10.64,10.64,0,0,1-7.23-2.51l1.78-2a8.69,8.69,0,0,0,5.38,1.85c2.5,0,4.1-1.09,4.1-2.91s-.94-2.61-4.65-3.59C54.64,35.85,53,34.07,53,31.39c0-3.06,3-5.27,6.91-5.27A10.15,10.15,0,0,1,66.41,28.3Z" transform="translate(-1.56 -1.2)"/><path class="cls-1" d="M81.34,44.83a7.3,7.3,0,0,1-4.28,1.31c-3.24,0-5.16-1.89-5.16-5.45V29.13H68.55V26.55H71.9V22.23l3.34-.4v4.72h4.54l-.36,2.58H75.24V40.54c0,1.93.62,2.84,2.29,2.84a5.21,5.21,0,0,0,2.54-.77Z" transform="translate(-1.56 -1.2)"/><path class="cls-1" d="M99.11,43.81l-.76,2.33c-1.93-.22-3.16-1-3.74-2.87a6.53,6.53,0,0,1-5.71,2.87c-3.81,0-6.1-2.36-6.1-5.78,0-4.1,3.08-6.32,8.43-6.32h2.94V32.62c0-2.76-1.34-3.78-4-3.78a17.25,17.25,0,0,0-5.16,1l-.83-2.43a18.57,18.57,0,0,1,6.61-1.31c4.61,0,6.72,2.36,6.72,6.36v8.75C97.51,42.9,98.13,43.45,99.11,43.81Zm-4.94-3.16V36.26H91.66c-3.52,0-5.3,1.3-5.3,3.92,0,2.25,1.12,3.45,3.3,3.45A4.92,4.92,0,0,0,94.17,40.65Z" transform="translate(-1.56 -1.2)"/><path class="cls-2" d="M9.09,84.64a3.45,3.45,0,0,1-3.77,3.63,3.4,3.4,0,0,1-3.74-3.63V77.35H3.06v7.18c0,1.67.73,2.49,2.26,2.49s2.27-.82,2.27-2.49V77.35h1.5Z" transform="translate(-1.56 -1.2)"/><path class="cls-2" d="M18.16,82.19v5.89H16.73V82.4c0-1.23-.5-1.59-1.29-1.59a2.48,2.48,0,0,0-2.09,1.45v5.82H11.92V79.87h1.23l.13,1.22a3,3,0,0,1,2.5-1.4A2.24,2.24,0,0,1,18.16,82.19Z" transform="translate(-1.56 -1.2)"/><path class="cls-2" d="M27.15,84.47H21.92c.14,1.9,1,2.63,2.21,2.63a3.45,3.45,0,0,0,2.13-.72l.62.86a4.47,4.47,0,0,1-2.86,1c-2.29,0-3.63-1.61-3.63-4.21s1.29-4.37,3.41-4.37,3.38,1.54,3.38,4C27.18,84,27.16,84.28,27.15,84.47Zm-1.39-1.16c0-1.6-.64-2.49-1.93-2.49-1.09,0-1.8.77-1.91,2.59h3.84Z" transform="translate(-1.56 -1.2)"/><path class="cls-2" d="M38.59,80.62l-.6.9a3.86,3.86,0,0,0-2.14-.7c-.93,0-1.51.42-1.51,1.08s.44,1,1.76,1.32c1.73.44,2.73,1.12,2.73,2.56,0,1.71-1.58,2.49-3.24,2.49a4.57,4.57,0,0,1-3.1-1.08l.76-.87a3.73,3.73,0,0,0,2.31.79c1.07,0,1.76-.46,1.76-1.24s-.41-1.12-2-1.54c-1.77-.47-2.47-1.23-2.47-2.39s1.26-2.25,3-2.25A4.33,4.33,0,0,1,38.59,80.62Z" transform="translate(-1.56 -1.2)"/><path class="cls-2" d="M47.58,84c0,2.54-1.34,4.3-3.66,4.3S40.26,86.58,40.26,84s1.34-4.29,3.67-4.29S47.58,81.37,47.58,84ZM41.8,84c0,2.14.75,3.13,2.12,3.13S46,86.12,46,84s-.75-3.13-2.11-3.13S41.8,81.84,41.8,84Z" transform="translate(-1.56 -1.2)"/><path class="cls-2" d="M49.8,86.46V76.57l1.44-.17v10c0,.43.14.65.51.65a1.47,1.47,0,0,0,.53-.09l.37,1a2.39,2.39,0,0,1-1.13.28A1.62,1.62,0,0,1,49.8,86.46Z" transform="translate(-1.56 -1.2)"/><path class="cls-2" d="M60.56,88.08H59.33l-.1-1.28a2.77,2.77,0,0,1-2.56,1.47,2.2,2.2,0,0,1-2.29-2.51V79.87h1.44V85.6c0,1.12.37,1.54,1.26,1.54a2.48,2.48,0,0,0,2.05-1.41V79.87h1.43Z" transform="translate(-1.56 -1.2)"/><path class="cls-2" d="M67.62,87.71a3.17,3.17,0,0,1-1.84.56,2.06,2.06,0,0,1-2.21-2.34V81H62.14V79.87h1.43V78L65,77.85v2h2L66.79,81H65v4.89c0,.82.27,1.21,1,1.21a2.29,2.29,0,0,0,1.09-.32Z" transform="translate(-1.56 -1.2)"/><path class="cls-2" d="M70.76,76.91a1,1,0,1,1-1-1A1,1,0,0,1,70.76,76.91Zm-.28,11.17H69.05V79.87h1.43Z" transform="translate(-1.56 -1.2)"/><path class="cls-2" d="M80.12,84c0,2.54-1.34,4.3-3.66,4.3S72.8,86.58,72.8,84s1.34-4.29,3.68-4.29S80.12,81.37,80.12,84Zm-5.78,0c0,2.14.75,3.13,2.12,3.13s2.12-1,2.12-3.14-.75-3.13-2.1-3.13S74.34,81.84,74.34,84Z" transform="translate(-1.56 -1.2)"/><path class="cls-2" d="M88.68,82.19v5.89H87.25V82.4c0-1.23-.5-1.59-1.29-1.59a2.48,2.48,0,0,0-2.09,1.45v5.82H82.44V79.87h1.23l.12,1.22a3,3,0,0,1,2.51-1.4A2.24,2.24,0,0,1,88.68,82.19Z" transform="translate(-1.56 -1.2)"/><path class="cls-2" d="M101.9,76.57V88.08h-1.26l-.14-1.14a2.74,2.74,0,0,1-2.37,1.33c-2,0-3.09-1.7-3.09-4.25s1.21-4.33,3.22-4.33a2.91,2.91,0,0,1,2.21,1V76.4Zm-1.43,9.34v-4a2.34,2.34,0,0,0-1.9-1.08c-1.23,0-2,1-2,3.16s.68,3.15,1.87,3.15A2.33,2.33,0,0,0,100.47,85.91Z" transform="translate(-1.56 -1.2)"/><path class="cls-2" d="M110.86,88.08h-1.23l-.11-1.28A2.77,2.77,0,0,1,107,88.27a2.19,2.19,0,0,1-2.28-2.51V79.87h1.43V85.6c0,1.12.37,1.54,1.26,1.54a2.48,2.48,0,0,0,2.06-1.41V79.87h1.43Z" transform="translate(-1.56 -1.2)"/><path class="cls-2" d="M122.22,79.78l-.26,1.4a2.68,2.68,0,0,0-.72-.09c-1,0-1.62.73-2,2.3v4.69h-1.43V79.87h1.23l.14,1.67a2.33,2.33,0,0,1,2.19-1.85A3.59,3.59,0,0,1,122.22,79.78Z" transform="translate(-1.56 -1.2)"/><path class="cls-2" d="M129.71,84.47h-5.23c.14,1.9,1,2.63,2.21,2.63a3.47,3.47,0,0,0,2.14-.72l.62.86a4.47,4.47,0,0,1-2.87,1c-2.28,0-3.62-1.61-3.62-4.21s1.29-4.37,3.41-4.37,3.38,1.54,3.38,4A7.1,7.1,0,0,1,129.71,84.47Zm-1.38-1.16c0-1.6-.64-2.49-1.93-2.49-1.09,0-1.81.77-1.92,2.59h3.85ZM125,78.15l-.44-.77,3.1-1.77.64,1.2Z" transform="translate(-1.56 -1.2)"/><path class="cls-2" d="M137,80.62l-.6.9a3.86,3.86,0,0,0-2.14-.7c-.93,0-1.51.42-1.51,1.08s.44,1,1.76,1.32c1.73.44,2.73,1.12,2.73,2.56,0,1.71-1.58,2.49-3.24,2.49a4.57,4.57,0,0,1-3.1-1.08l.76-.87a3.73,3.73,0,0,0,2.31.79c1.07,0,1.75-.46,1.75-1.24s-.4-1.12-2-1.54c-1.77-.47-2.47-1.23-2.47-2.39s1.26-2.25,3-2.25A4.35,4.35,0,0,1,137,80.62Z" transform="translate(-1.56 -1.2)"/><path class="cls-2" d="M145.46,84.47h-5.23c.14,1.9,1,2.63,2.21,2.63a3.47,3.47,0,0,0,2.13-.72l.62.86a4.47,4.47,0,0,1-2.86,1c-2.29,0-3.63-1.61-3.63-4.21s1.29-4.37,3.41-4.37,3.38,1.54,3.38,4C145.49,84,145.47,84.28,145.46,84.47Zm-1.39-1.16c0-1.6-.64-2.49-1.93-2.49-1.09,0-1.81.77-1.91,2.59h3.84Z" transform="translate(-1.56 -1.2)"/><path class="cls-2" d="M153.82,87.27l-.33,1a1.66,1.66,0,0,1-1.6-1.23,2.82,2.82,0,0,1-2.45,1.23,2.39,2.39,0,0,1-2.61-2.48c0-1.76,1.32-2.71,3.61-2.71h1.26v-.61c0-1.18-.58-1.62-1.71-1.62a7.35,7.35,0,0,0-2.21.44l-.36-1a7.86,7.86,0,0,1,2.83-.56c2,0,2.88,1,2.88,2.72v3.75C153.13,86.88,153.4,87.11,153.82,87.27Zm-2.12-1.36V84h-1.07c-1.51,0-2.28.56-2.28,1.68a1.3,1.3,0,0,0,1.42,1.48A2.11,2.11,0,0,0,151.7,85.91Z" transform="translate(-1.56 -1.2)"/><path class="cls-2" d="M162.12,88.08h-1.23l-.11-1.28a2.75,2.75,0,0,1-2.55,1.47,2.2,2.2,0,0,1-2.29-2.51V79.87h1.43V85.6c0,1.12.37,1.54,1.26,1.54a2.45,2.45,0,0,0,2.05-1.41V79.87h1.44Z" transform="translate(-1.56 -1.2)"/><path class="cls-3" d="M139.4,49.77a22,22,0,0,1-25.7-17.63,22.68,22.68,0,0,1-.25-6.35A21.08,21.08,0,1,0,147,46.85,22,22,0,0,1,139.4,49.77Z" transform="translate(-1.56 -1.2)"/><path class="cls-1" d="M112.47,69.59a6.61,6.61,0,0,1-3.53-1.12,5.75,5.75,0,0,1-2.8-6.18l0-.2L120.33,44.7l7,5-12,18.92A4.62,4.62,0,0,1,112.47,69.59ZM108,63a3.85,3.85,0,0,0,2,3.88c2.2,1.38,3.62.67,4,.43l10.8-17-4.08-2.94Z" transform="translate(-1.56 -1.2)"/><path class="cls-2" d="M170,46.51h-6.2l-6-15.95a60.12,60.12,0,0,1,.63,8.41v7.54h-4.34V25.93h6.06l6.09,16a47.46,47.46,0,0,1-.65-7.67V25.93H170Z" transform="translate(-1.56 -1.2)"/><path class="cls-2" d="M189.57,39.68c0,4.16-2.67,7.34-8,7.34s-8-3-8-7.34V25.93h4.87V39.47c0,2.65.95,3.92,3.15,3.92s3.18-1.27,3.18-3.92V25.93h4.87Z" transform="translate(-1.56 -1.2)"/><path class="cls-2" d="M213.56,46.51h-4.78l-.36-8a79,79,0,0,1-.06-8.4l-3.17,14.28h-4.61L197.2,30.06a77.41,77.41,0,0,1,.09,8.46l-.36,8h-4.75l1.54-20.58h6.15l3.09,14,2.88-14H212Z" transform="translate(-1.56 -1.2)"/><path class="cls-2" d="M228.58,29.4h-7.24v4.93h6.32v3.42h-6.32V43h7.75v3.5H216.47V25.93h12.62ZM227,21.62l-7.13,2.59-1.19-2.38,6.57-3.71Z" transform="translate(-1.56 -1.2)"/><path class="cls-2" d="M238.85,38.64H237v7.87h-4.87V25.93h6.75c5.58,0,8.46,2,8.46,6.27,0,2.7-1.28,4.33-3.95,5.55l5.23,8.76h-5.5ZM237,35.28H239c2.14,0,3.27-.92,3.27-3.08,0-2-1.16-2.86-3.56-2.86H237Z" transform="translate(-1.56 -1.2)"/><path class="cls-2" d="M255.27,46.51H250.4V25.93h4.87Z" transform="translate(-1.56 -1.2)"/><path class="cls-2" d="M278,47.05,275,50.88c-1.9-2.14-4-4-7.9-4-5.49,0-9-3.86-9-10.72s3.48-10.79,9.27-10.79,9.29,3.92,9.29,10.79c0,5-2.31,7.57-4.84,9A9.64,9.64,0,0,1,278,47.05Zm-10.54-3.6c2.79,0,4.19-2,4.19-7.24S270.18,29,267.42,29s-4.16,2-4.16,7.22S264.75,43.45,267.42,43.45Z" transform="translate(-1.56 -1.2)"/><path class="cls-2" d="M295.36,39.68c0,4.16-2.67,7.34-8.05,7.34s-8-3-8-7.34V25.93h4.87V39.47c0,2.65.95,3.92,3.15,3.92s3.18-1.27,3.18-3.92V25.93h4.87Z" transform="translate(-1.56 -1.2)"/><path class="cls-2" d="M311,29.4h-7.25v4.93h6.33v3.42h-6.33V43h7.75v3.5H298.92V25.93h12.62Z" transform="translate(-1.56 -1.2)"/><path class="cls-2" d="M118.28,6.17l-.73.61a27.74,27.74,0,0,0-9.87,19h1.92a25.87,25.87,0,0,1,9.18-17.56l.73-.62Z" transform="translate(-1.56 -1.2)"/><path class="cls-2" d="M160.83,17a27.79,27.79,0,0,0-17.5-15.48l-.92-.27L141.86,3l.92.27A25.79,25.79,0,0,1,158.71,17Z" transform="translate(-1.56 -1.2)"/><path class="cls-1" d="M131.17,5.5a23,23,0,0,0,4.19,45.6,22.55,22.55,0,0,0,4.22-.39,22.79,22.79,0,0,0,7.69-2.93V45.5a20.82,20.82,0,0,1-8,3.33A21.08,21.08,0,1,1,155,20.4H157A23,23,0,0,0,131.17,5.5Z" transform="translate(-1.56 -1.2)"/><path class="cls-4" d="M147.27,37.8l-.42.49a15.42,15.42,0,0,1-26.29-14.84c0-.14.09-.28.14-.41l.16-.44a5.38,5.38,0,0,1,.2-.51c.14-.34.31-.68.48-1l.14-.28.09-.19.06-.12a15.44,15.44,0,0,1,21-5.92,15.48,15.48,0,0,1,5.86,5.83h2.18a17.35,17.35,0,0,0-30.71-.84,2.4,2.4,0,0,0-.11.23l-.05.1-.11.21,0,.11c-.19.38-.38.76-.54,1.14-.08.2-.16.4-.23.6l-.15.41c-.06.17-.13.34-.18.51a17.33,17.33,0,0,0,16.53,22.58,17.67,17.67,0,0,0,3.44-.34,17.16,17.16,0,0,0,8.57-4.5Z" transform="translate(-1.56 -1.2)"/><rect class="cls-2" x="170.91" y="64.22" width="141.18" height="37.56" rx="18.24"/><path class="cls-5" d="M187.49,84.2a11.28,11.28,0,0,0,11.27,11.27,11.15,11.15,0,0,0,6.93-2.39l-2.38-2.66a7.6,7.6,0,0,1-4.55,1.48,7.7,7.7,0,1,1,0-15.39,7.52,7.52,0,0,1,3.08.65l1.42-3.28a11.1,11.1,0,0,0-4.5-.95A11.29,11.29,0,0,0,187.49,84.2Z" transform="translate(-1.56 -1.2)"/><path class="cls-5" d="M192.75,84.2a6,6,0,0,0,6,6,5.85,5.85,0,0,0,3.37-1.07l-2.42-2.7a2.7,2.7,0,0,1-1,.19,2.43,2.43,0,0,1-2.43-2.43,2.47,2.47,0,0,1,2.44-2.46,2.55,2.55,0,0,1,1,.21l1.41-3.24a6.17,6.17,0,0,0-2.41-.51A6,6,0,0,0,192.75,84.2Z" transform="translate(-1.56 -1.2)"/><path class="cls-5" d="M203.24,81.87a5.27,5.27,0,0,1,.58,2.33,5.47,5.47,0,0,1-1.11,3.16L205.12,90a8.63,8.63,0,0,0,2.27-5.82,8.73,8.73,0,0,0-.91-3.85Z" transform="translate(-1.56 -1.2)"/><path class="cls-5" d="M202.24,80.53l6.12-2.86a11.74,11.74,0,0,0-3.4-3.31l-2.74,6.16Z" transform="translate(-1.56 -1.2)"/><path class="cls-5" d="M222.49,76.7l-1,1.12a2.6,2.6,0,0,0-1.58-.58c-1.13,0-1.92.86-1.92,2.91s.77,2.88,1.94,2.88a2.82,2.82,0,0,0,1.73-.68l.92,1.14a4,4,0,0,1-2.75,1.08c-2.41,0-4-1.55-4-4.42s1.71-4.37,4-4.37A4,4,0,0,1,222.49,76.7Z" transform="translate(-1.56 -1.2)"/><path class="cls-5" d="M229.43,76.7l-1,1.12a2.58,2.58,0,0,0-1.58-.58c-1.13,0-1.92.86-1.92,2.91s.78,2.88,1.94,2.88a2.82,2.82,0,0,0,1.73-.68l.93,1.14a4,4,0,0,1-2.76,1.08c-2.41,0-4-1.55-4-4.42s1.71-4.37,4-4.37A4,4,0,0,1,229.43,76.7Z" transform="translate(-1.56 -1.2)"/><path class="cls-5" d="M232.45,84.36h-2.08V76h2.08Z" transform="translate(-1.56 -1.2)"/><path class="cls-5" d="M244.75,80.17c0,2.74-1.48,4.4-4,4.4s-4-1.61-4-4.4,1.48-4.39,4-4.39S244.75,77.38,244.75,80.17Zm-5.75,0c0,2.12.64,3,1.78,3s1.79-.83,1.79-3-.61-2.94-1.79-2.94S239,78.05,239,80.17Z" transform="translate(-1.56 -1.2)"/><path class="cls-5" d="M252.23,76.7l-1,1.12a2.61,2.61,0,0,0-1.59-.58c-1.12,0-1.91.86-1.91,2.91s.77,2.88,1.94,2.88a2.82,2.82,0,0,0,1.73-.68l.92,1.14a4,4,0,0,1-2.75,1.08c-2.41,0-4-1.55-4-4.42s1.71-4.37,4-4.37A4,4,0,0,1,252.23,76.7Z" transform="translate(-1.56 -1.2)"/><path class="cls-5" d="M259.16,76.7l-1,1.12a2.6,2.6,0,0,0-1.58-.58c-1.13,0-1.92.86-1.92,2.91s.77,2.88,1.94,2.88a2.82,2.82,0,0,0,1.73-.68l.92,1.14a4,4,0,0,1-2.75,1.08c-2.41,0-4-1.55-4-4.42s1.71-4.37,4-4.37A4,4,0,0,1,259.16,76.7Z" transform="translate(-1.56 -1.2)"/><path class="cls-5" d="M262.19,84.36h-2.08V76h2.08Z" transform="translate(-1.56 -1.2)"/><path class="cls-5" d="M269.54,77.51h-2.17v6.85h-2.08V77.51H263V76h6.72Z" transform="translate(-1.56 -1.2)"/><path class="cls-5" d="M274,82.56h-2.57l-.45,1.8h-2.16L271.51,76H274l2.65,8.37h-2.2Zm-.37-1.44-.92-3.7-.93,3.7Z" transform="translate(-1.56 -1.2)"/><path class="cls-5" d="M284.17,84.36h-2.65L279,77.87a23.56,23.56,0,0,1,.27,3.42v3.07H277.4V76H280l2.61,6.5a17.92,17.92,0,0,1-.28-3.12V76h1.86Z" transform="translate(-1.56 -1.2)"/><path class="cls-5" d="M287.85,84.36h-2.08V76h2.08Z" transform="translate(-1.56 -1.2)"/><path class="cls-5" d="M294.6,77.4h-3.09v2h2.7V80.8h-2.7v2.13h3.31v1.43h-5.39V76h5.39Z" transform="translate(-1.56 -1.2)"/><path class="cls-5" d="M219.23,89.62c0,1-.78,1.5-1.84,1.5h-.55v1.57H216v-4.5h1.38C218.51,88.19,219.23,88.65,219.23,89.62Zm-.94,0c0-.57-.36-.8-1-.8h-.48v1.65h.48C217.92,90.47,218.29,90.28,218.29,89.62Z" transform="translate(-1.56 -1.2)"/><path class="cls-5" d="M221.75,91v1.71h-.91V91l-1.51-2.8h1l1,2.09,1-2.09h.95Z" transform="translate(-1.56 -1.2)"/><path class="cls-5" d="M225.26,90.88h-.57v1.81h-.9v-4.5h1.4c1.23,0,1.86.43,1.86,1.32a1.23,1.23,0,0,1-1,1.22l1.22,2h-1Zm-.57-.62h.55c.56,0,.87-.21.87-.75s-.29-.7-.94-.7h-.48Z" transform="translate(-1.56 -1.2)"/><path class="cls-5" d="M230.52,88.83H228.8v1.25h1.5v.64h-1.5V92h1.85v.65H227.9v-4.5h2.72Zm-.36-1.59-1.55.55-.22-.43,1.44-.77Z" transform="translate(-1.56 -1.2)"/><path class="cls-5" d="M234.83,92.69h-1.16l-1.61-3.64a13.27,13.27,0,0,1,.12,1.8v1.84h-.81v-4.5h1.13l1.63,3.64A10.64,10.64,0,0,1,234,90.3V88.19h.82Z" transform="translate(-1.56 -1.2)"/><path class="cls-5" d="M238.47,88.83h-1.73v1.25h1.5v.64h-1.5V92h1.85v.65h-2.75v-4.5h2.72Zm-.36-1.59-1.56.55-.22-.43,1.44-.77Z" transform="translate(-1.56 -1.2)"/><path class="cls-5" d="M241.93,88.83H240.2v1.25h1.51v.64H240.2V92h1.86v.65h-2.75v-4.5H242Z" transform="translate(-1.56 -1.2)"/><path class="cls-5" d="M245.86,88.64l-.44.49a1.64,1.64,0,0,0-1-.38c-.42,0-.73.18-.73.53s.19.47,1,.71,1.39.57,1.39,1.41-.66,1.38-1.78,1.38a2.4,2.4,0,0,1-1.69-.61l.46-.5a1.84,1.84,0,0,0,1.21.45c.5,0,.86-.23.86-.67s-.2-.55-.93-.76c-1-.29-1.41-.67-1.41-1.36s.67-1.24,1.59-1.24A2.2,2.2,0,0,1,245.86,88.64Z" transform="translate(-1.56 -1.2)"/><path class="cls-5" d="M246.58,90.32h2V91h-2Z" transform="translate(-1.56 -1.2)"/><path class="cls-5" d="M254,92.69h-.87L253,90.81c0-.67-.08-1.37-.06-1.84L252,92.2h-.85l-.9-3.24c0,.61,0,1.23,0,1.87l-.12,1.86h-.86l.37-4.5h1.15l.84,3.15.78-3.15h1.17Z" transform="translate(-1.56 -1.2)"/><path class="cls-5" d="M257.4,88.83h-1.73v1.25h1.51v.64h-1.51V92h1.85v.65h-2.74v-4.5h2.72ZM257,87.24l-1.55.55-.22-.43,1.43-.77Z" transform="translate(-1.56 -1.2)"/><path class="cls-5" d="M261.8,90.41a2,2,0,0,1-2.28,2.28h-1.27v-4.5h1.15C260.63,88.19,261.8,88.55,261.8,90.41Zm-2.66-1.58V92h.44c.7,0,1.28-.3,1.28-1.63s-.61-1.58-1.31-1.58Z" transform="translate(-1.56 -1.2)"/><path class="cls-5" d="M263.48,92.69h-.9v-4.5h.9Z" transform="translate(-1.56 -1.2)"/><path class="cls-5" d="M267.44,88.87h-1.22v3.82h-.9V88.87h-1.26v-.68h3.47Z" transform="translate(-1.56 -1.2)"/><path class="cls-5" d="M270.72,88.83H269v1.25h1.5v.64H269V92h1.85v.65h-2.75v-4.5h2.72Z" transform="translate(-1.56 -1.2)"/><path class="cls-5" d="M273,90.88h-.57v1.81h-.9v-4.5H273c1.23,0,1.86.43,1.86,1.32a1.23,1.23,0,0,1-.95,1.22l1.22,2h-1Zm-.57-.62H273c.56,0,.87-.21.87-.75s-.29-.7-.94-.7h-.48Z" transform="translate(-1.56 -1.2)"/><path class="cls-5" d="M277.14,90.88h-.57v1.81h-.9v-4.5h1.4c1.22,0,1.86.43,1.86,1.32a1.23,1.23,0,0,1-.95,1.22l1.22,2h-1Zm-.57-.62h.55c.56,0,.87-.21.87-.75s-.29-.7-.94-.7h-.48Z" transform="translate(-1.56 -1.2)"/><path class="cls-5" d="M282.27,91.64h-1.55l-.3,1h-.92l1.45-4.5h1.11l1.45,4.5h-.95Zm-.18-.65-.6-2.14-.6,2.14Z" transform="translate(-1.56 -1.2)"/><path class="cls-5" d="M287.5,92.69h-1.16l-1.61-3.64a12.89,12.89,0,0,1,.13,1.8v1.84H284v-4.5h1.13l1.64,3.64a10.64,10.64,0,0,1-.12-1.53V88.19h.81Z" transform="translate(-1.56 -1.2)"/><path class="cls-5" d="M291.14,88.83h-1.73v1.25h1.51v.64h-1.51V92h1.85v.65h-2.74v-4.5h2.71Zm-.36-1.59-1.55.55-.23-.43,1.44-.77Z" transform="translate(-1.56 -1.2)"/><path class="cls-5" d="M294.61,88.83h-1.73v1.25h1.5v.64h-1.5V92h1.85v.65H292v-4.5h2.72Z" transform="translate(-1.56 -1.2)"/></svg>